<svg width="18" height="16" viewBox="0 0 18 16" fill="none" xmlns="http://www.w3.org/2000/svg">
<path d="M5.22965 9.95502e-09H17.1742C17.3932 9.95502e-09 17.6033 0.0936505 17.7581 0.260349C17.913 0.427048 18 0.653141 18 0.888889V15.1111C18 15.3469 17.913 15.573 17.7581 15.7397C17.6033 15.9064 17.3932 16 17.1742 16H5.22965C5.09374 16 4.95992 15.9639 4.84007 15.8949C4.72022 15.8259 4.61805 15.7261 4.54262 15.6044L0.138851 8.49333C0.0483157 8.34726 0 8.1756 0 8C0 7.8244 0.0483157 7.65274 0.138851 7.50667L4.54262 0.395555C4.61805 0.273852 4.72022 0.174073 4.84007 0.105071C4.95992 0.0360692 5.09374 -2.18838e-05 5.22965 9.95502e-09ZM5.67143 1.77778L1.81844 8L5.67143 14.2222H16.3485V1.77778H5.67143ZM10.5682 6.74311L12.9034 4.22844L14.0719 5.48622L11.7358 8L14.0719 10.5138L12.9034 11.7716L10.5682 9.25689L8.23293 11.7716L7.06448 10.5138L9.40056 8L7.06448 5.48622L8.23293 4.22844L10.5682 6.74311Z" fill="white"/>
</svg>
